<svg width="307" height="353" viewBox="0 0 307 353" fill="none" xmlns="http://www.w3.org/2000/svg">
<g filter="url(#filter0_d_909_1369)">
<ellipse cx="158.5" cy="155" rx="144.5" ry="145" fill="#32023A"/>
<path d="M301.5 155C301.5 234.258 237.472 298.5 158.5 298.5C79.5282 298.5 15.5 234.258 15.5 155C15.5 75.7422 79.5282 11.5 158.5 11.5C237.472 11.5 301.5 75.7422 301.5 155Z" stroke="#060A3A" stroke-width="3"/>
</g>
<text transform="translate(61.8262 269.194) rotate(-5.54896)" fill="#32023A" stroke="#060A3A" stroke-width="6" stroke-linecap="round" stroke-linejoin="round" xml:space="preserve" style="white-space: pre" font-family="Poppins" font-size="42" font-weight="900" letter-spacing="0em"><tspan x="12.597" y="33.2">CHARITY&#10;</tspan><tspan x="45.3685" y="70.2">NAME</tspan></text>
<g filter="url(#filter1_d_909_1369)">
<ellipse cx="148.5" cy="145" rx="144.5" ry="145" fill="white"/>
<path d="M291.5 145C291.5 224.258 227.472 288.5 148.5 288.5C69.5282 288.5 5.5 224.258 5.5 145C5.5 65.7422 69.5282 1.5 148.5 1.5C227.472 1.5 291.5 65.7422 291.5 145Z" stroke="#E5E5E5" stroke-width="3"/>
</g>
<mask id="path-6-outside-1_909_1369" maskUnits="userSpaceOnUse" x="61.2686" y="236.463" width="203" height="94" fill="black">
<rect fill="white" x="61.2686" y="236.463" width="203" height="94"/>
<path d="M67.3669 275.86C67.0826 272.933 67.4147 270.271 68.3632 267.872C69.3395 265.47 70.8676 263.535 72.9474 262.067C75.0245 260.571 77.554 259.679 80.536 259.389C83.0999 259.14 85.4325 259.406 87.5338 260.186C89.6603 260.936 91.4359 262.128 92.8605 263.762C94.3131 265.393 95.3621 267.359 96.0075 269.659L86.2256 270.609C85.6849 269.677 84.9708 268.987 84.0833 268.539C83.221 268.06 82.2603 267.872 81.2013 267.975C79.6407 268.127 78.4573 268.832 77.6514 270.092C76.8733 271.349 76.5804 272.967 76.7726 274.946C76.9648 276.924 77.5637 278.456 78.5692 279.54C79.6026 280.621 80.8996 281.086 82.4603 280.934C83.5193 280.831 84.4272 280.476 85.1839 279.868C85.9659 279.229 86.5324 278.4 86.8835 277.382L96.6655 276.431C96.4749 278.813 95.8239 280.944 94.7125 282.824C93.6289 284.702 92.1174 286.227 90.1777 287.4C88.2632 288.542 86.024 289.238 83.4601 289.487C80.4781 289.777 77.8254 289.402 75.5019 288.362C73.1757 287.293 71.3025 285.675 69.8821 283.506C68.4896 281.335 67.6512 278.786 67.3669 275.86Z"/>
<path d="M125.625 255.304L128.501 284.901L119.22 285.802L118.099 274.264L109.279 275.121L110.4 286.659L101.12 287.561L98.2442 257.964L107.525 257.062L108.56 267.722L117.381 266.865L116.345 256.205L125.625 255.304Z"/>
<path d="M151.22 278.178L141.355 279.137L140.326 283.752L130.586 284.698L138.538 254.049L149.239 253.01L162.9 281.559L153.118 282.509L151.22 278.178ZM148.285 271.416L144.809 263.441L142.934 271.936L148.285 271.416Z"/>
<path d="M179.89 279.908L173.299 269.83L173.257 269.834L174.289 280.452L165.008 281.354L162.133 251.757L175.928 250.417C178.325 250.184 180.415 250.417 182.199 251.116C183.98 251.787 185.36 252.82 186.34 254.216C187.345 255.581 187.936 257.183 188.115 259.023C188.307 261.001 187.921 262.811 186.955 264.452C186.017 266.091 184.549 267.345 182.552 268.214L190.09 278.917L179.89 279.908ZM172.656 263.647L176.335 263.29C177.226 263.203 177.876 262.943 178.284 262.51C178.69 262.048 178.85 261.386 178.766 260.522C178.69 259.741 178.394 259.151 177.877 258.752C177.388 258.349 176.711 258.19 175.847 258.274L172.169 258.631L172.656 263.647Z"/>
<path d="M199.418 248.135L202.293 277.731L193.013 278.633L190.138 249.036L199.418 248.135Z"/>
<path d="M226.852 245.47L227.567 252.827L219.708 253.59L221.868 275.83L212.588 276.731L210.427 254.492L202.652 255.247L201.937 247.89L226.852 245.47Z"/>
<path d="M257.795 242.463L249.179 264.104L250.053 273.092L240.772 273.993L239.899 265.006L227.279 245.428L237.897 244.397L243.64 254.43L247.344 243.479L257.795 242.463Z"/>
<path d="M134.225 321.519L124.944 322.42L113.675 308.493L115.121 323.375L105.84 324.276L102.965 294.68L112.245 293.778L123.539 307.956L122.069 292.824L131.349 291.922L134.225 321.519Z"/>
<path d="M156.962 314.795L147.096 315.753L146.067 320.368L136.327 321.314L144.279 290.666L154.981 289.626L168.641 318.175L158.859 319.125L156.962 314.795ZM154.026 308.033L150.55 300.057L148.675 308.553L154.026 308.033Z"/>
<path d="M203.449 284.917L206.324 314.514L197.086 315.412L195.652 300.655L192.529 315.854L184.586 316.626L178.596 302.312L180.03 317.069L170.75 317.97L167.874 288.374L179.245 287.269L187.492 304.402L192.12 286.018L203.449 284.917Z"/>
<path d="M217.635 291.008L217.989 294.645L227.185 293.752L227.864 300.733L218.667 301.626L219.073 305.806L229.524 304.791L230.243 312.19L210.512 314.107L207.636 284.511L227.367 282.594L228.086 289.993L217.635 291.008Z"/>
</mask>
<path d="M67.3669 275.86C67.0826 272.933 67.4147 270.271 68.3632 267.872C69.3395 265.47 70.8676 263.535 72.9474 262.067C75.0245 260.571 77.554 259.679 80.536 259.389C83.0999 259.14 85.4325 259.406 87.5338 260.186C89.6603 260.936 91.4359 262.128 92.8605 263.762C94.3131 265.393 95.3621 267.359 96.0075 269.659L86.2256 270.609C85.6849 269.677 84.9708 268.987 84.0833 268.539C83.221 268.06 82.2603 267.872 81.2013 267.975C79.6407 268.127 78.4573 268.832 77.6514 270.092C76.8733 271.349 76.5804 272.967 76.7726 274.946C76.9648 276.924 77.5637 278.456 78.5692 279.54C79.6026 280.621 80.8996 281.086 82.4603 280.934C83.5193 280.831 84.4272 280.476 85.1839 279.868C85.9659 279.229 86.5324 278.4 86.8835 277.382L96.6655 276.431C96.4749 278.813 95.8239 280.944 94.7125 282.824C93.6289 284.702 92.1174 286.227 90.1777 287.4C88.2632 288.542 86.024 289.238 83.4601 289.487C80.4781 289.777 77.8254 289.402 75.5019 288.362C73.1757 287.293 71.3025 285.675 69.8821 283.506C68.4896 281.335 67.6512 278.786 67.3669 275.86Z" fill="white"/>
<path d="M125.625 255.304L128.501 284.901L119.22 285.802L118.099 274.264L109.279 275.121L110.4 286.659L101.12 287.561L98.2442 257.964L107.525 257.062L108.56 267.722L117.381 266.865L116.345 256.205L125.625 255.304Z" fill="white"/>
<path d="M151.22 278.178L141.355 279.137L140.326 283.752L130.586 284.698L138.538 254.049L149.239 253.01L162.9 281.559L153.118 282.509L151.22 278.178ZM148.285 271.416L144.809 263.441L142.934 271.936L148.285 271.416Z" fill="white"/>
<path d="M179.89 279.908L173.299 269.83L173.257 269.834L174.289 280.452L165.008 281.354L162.133 251.757L175.928 250.417C178.325 250.184 180.415 250.417 182.199 251.116C183.98 251.787 185.36 252.82 186.34 254.216C187.345 255.581 187.936 257.183 188.115 259.023C188.307 261.001 187.921 262.811 186.955 264.452C186.017 266.091 184.549 267.345 182.552 268.214L190.09 278.917L179.89 279.908ZM172.656 263.647L176.335 263.29C177.226 263.203 177.876 262.943 178.284 262.51C178.69 262.048 178.85 261.386 178.766 260.522C178.69 259.741 178.394 259.151 177.877 258.752C177.388 258.349 176.711 258.19 175.847 258.274L172.169 258.631L172.656 263.647Z" fill="white"/>
<path d="M199.418 248.135L202.293 277.731L193.013 278.633L190.138 249.036L199.418 248.135Z" fill="white"/>
<path d="M226.852 245.47L227.567 252.827L219.708 253.59L221.868 275.83L212.588 276.731L210.427 254.492L202.652 255.247L201.937 247.89L226.852 245.47Z" fill="white"/>
<path d="M257.795 242.463L249.179 264.104L250.053 273.092L240.772 273.993L239.899 265.006L227.279 245.428L237.897 244.397L243.64 254.43L247.344 243.479L257.795 242.463Z" fill="white"/>
<path d="M134.225 321.519L124.944 322.42L113.675 308.493L115.121 323.375L105.84 324.276L102.965 294.68L112.245 293.778L123.539 307.956L122.069 292.824L131.349 291.922L134.225 321.519Z" fill="white"/>
<path d="M156.962 314.795L147.096 315.753L146.067 320.368L136.327 321.314L144.279 290.666L154.981 289.626L168.641 318.175L158.859 319.125L156.962 314.795ZM154.026 308.033L150.55 300.057L148.675 308.553L154.026 308.033Z" fill="white"/>
<path d="M203.449 284.917L206.324 314.514L197.086 315.412L195.652 300.655L192.529 315.854L184.586 316.626L178.596 302.312L180.03 317.069L170.75 317.97L167.874 288.374L179.245 287.269L187.492 304.402L192.12 286.018L203.449 284.917Z" fill="white"/>
<path d="M217.635 291.008L217.989 294.645L227.185 293.752L227.864 300.733L218.667 301.626L219.073 305.806L229.524 304.791L230.243 312.19L210.512 314.107L207.636 284.511L227.367 282.594L228.086 289.993L217.635 291.008Z" fill="white"/>
<path d="M67.3669 275.86C67.0826 272.933 67.4147 270.271 68.3632 267.872C69.3395 265.47 70.8676 263.535 72.9474 262.067C75.0245 260.571 77.554 259.679 80.536 259.389C83.0999 259.14 85.4325 259.406 87.5338 260.186C89.6603 260.936 91.4359 262.128 92.8605 263.762C94.3131 265.393 95.3621 267.359 96.0075 269.659L86.2256 270.609C85.6849 269.677 84.9708 268.987 84.0833 268.539C83.221 268.06 82.2603 267.872 81.2013 267.975C79.6407 268.127 78.4573 268.832 77.6514 270.092C76.8733 271.349 76.5804 272.967 76.7726 274.946C76.9648 276.924 77.5637 278.456 78.5692 279.54C79.6026 280.621 80.8996 281.086 82.4603 280.934C83.5193 280.831 84.4272 280.476 85.1839 279.868C85.9659 279.229 86.5324 278.4 86.8835 277.382L96.6655 276.431C96.4749 278.813 95.8239 280.944 94.7125 282.824C93.6289 284.702 92.1174 286.227 90.1777 287.4C88.2632 288.542 86.024 289.238 83.4601 289.487C80.4781 289.777 77.8254 289.402 75.5019 288.362C73.1757 287.293 71.3025 285.675 69.8821 283.506C68.4896 281.335 67.6512 278.786 67.3669 275.86Z" stroke="#00AEEF" stroke-width="12" stroke-linecap="round" stroke-linejoin="round" mask="url(#path-6-outside-1_909_1369)"/>
<path d="M125.625 255.304L128.501 284.901L119.22 285.802L118.099 274.264L109.279 275.121L110.4 286.659L101.12 287.561L98.2442 257.964L107.525 257.062L108.56 267.722L117.381 266.865L116.345 256.205L125.625 255.304Z" stroke="#00AEEF" stroke-width="12" stroke-linecap="round" stroke-linejoin="round" mask="url(#path-6-outside-1_909_1369)"/>
<path d="M151.22 278.178L141.355 279.137L140.326 283.752L130.586 284.698L138.538 254.049L149.239 253.01L162.9 281.559L153.118 282.509L151.22 278.178ZM148.285 271.416L144.809 263.441L142.934 271.936L148.285 271.416Z" stroke="#00AEEF" stroke-width="12" stroke-linecap="round" stroke-linejoin="round" mask="url(#path-6-outside-1_909_1369)"/>
<path d="M179.89 279.908L173.299 269.83L173.257 269.834L174.289 280.452L165.008 281.354L162.133 251.757L175.928 250.417C178.325 250.184 180.415 250.417 182.199 251.116C183.98 251.787 185.36 252.82 186.34 254.216C187.345 255.581 187.936 257.183 188.115 259.023C188.307 261.001 187.921 262.811 186.955 264.452C186.017 266.091 184.549 267.345 182.552 268.214L190.09 278.917L179.89 279.908ZM172.656 263.647L176.335 263.29C177.226 263.203 177.876 262.943 178.284 262.51C178.69 262.048 178.85 261.386 178.766 260.522C178.69 259.741 178.394 259.151 177.877 258.752C177.388 258.349 176.711 258.19 175.847 258.274L172.169 258.631L172.656 263.647Z" stroke="#00AEEF" stroke-width="12" stroke-linecap="round" stroke-linejoin="round" mask="url(#path-6-outside-1_909_1369)"/>
<path d="M199.418 248.135L202.293 277.731L193.013 278.633L190.138 249.036L199.418 248.135Z" stroke="#00AEEF" stroke-width="12" stroke-linecap="round" stroke-linejoin="round" mask="url(#path-6-outside-1_909_1369)"/>
<path d="M226.852 245.47L227.567 252.827L219.708 253.59L221.868 275.83L212.588 276.731L210.427 254.492L202.652 255.247L201.937 247.89L226.852 245.47Z" stroke="#00AEEF" stroke-width="12" stroke-linecap="round" stroke-linejoin="round" mask="url(#path-6-outside-1_909_1369)"/>
<path d="M257.795 242.463L249.179 264.104L250.053 273.092L240.772 273.993L239.899 265.006L227.279 245.428L237.897 244.397L243.64 254.43L247.344 243.479L257.795 242.463Z" stroke="#00AEEF" stroke-width="12" stroke-linecap="round" stroke-linejoin="round" mask="url(#path-6-outside-1_909_1369)"/>
<path d="M134.225 321.519L124.944 322.42L113.675 308.493L115.121 323.375L105.84 324.276L102.965 294.68L112.245 293.778L123.539 307.956L122.069 292.824L131.349 291.922L134.225 321.519Z" stroke="#00AEEF" stroke-width="12" stroke-linecap="round" stroke-linejoin="round" mask="url(#path-6-outside-1_909_1369)"/>
<path d="M156.962 314.795L147.096 315.753L146.067 320.368L136.327 321.314L144.279 290.666L154.981 289.626L168.641 318.175L158.859 319.125L156.962 314.795ZM154.026 308.033L150.55 300.057L148.675 308.553L154.026 308.033Z" stroke="#00AEEF" stroke-width="12" stroke-linecap="round" stroke-linejoin="round" mask="url(#path-6-outside-1_909_1369)"/>
<path d="M203.449 284.917L206.324 314.514L197.086 315.412L195.652 300.655L192.529 315.854L184.586 316.626L178.596 302.312L180.03 317.069L170.75 317.97L167.874 288.374L179.245 287.269L187.492 304.402L192.12 286.018L203.449 284.917Z" stroke="#00AEEF" stroke-width="12" stroke-linecap="round" stroke-linejoin="round" mask="url(#path-6-outside-1_909_1369)"/>
<path d="M217.635 291.008L217.989 294.645L227.185 293.752L227.864 300.733L218.667 301.626L219.073 305.806L229.524 304.791L230.243 312.19L210.512 314.107L207.636 284.511L227.367 282.594L228.086 289.993L217.635 291.008Z" stroke="#00AEEF" stroke-width="12" stroke-linecap="round" stroke-linejoin="round" mask="url(#path-6-outside-1_909_1369)"/>
<defs>
<filter id="filter0_d_909_1369" x="10" y="10" width="297" height="298" filterUnits="userSpaceOnUse" color-interpolation-filters="sRGB">
<feFlood flood-opacity="0" result="BackgroundImageFix"/>
<feColorMatrix in="SourceAlpha" type="matrix" values="0 0 0 0 0 0 0 0 0 0 0 0 0 0 0 0 0 0 127 0" result="hardAlpha"/>
<feOffset dy="4"/>
<feGaussianBlur stdDeviation="2"/>
<feColorMatrix type="matrix" values="0 0 0 0 0 0 0 0 0 0 0 0 0 0 0 0 0 0 0.25 0"/>
<feBlend mode="normal" in2="BackgroundImageFix" result="effect1_dropShadow_909_1369"/>
<feBlend mode="normal" in="SourceGraphic" in2="effect1_dropShadow_909_1369" result="shape"/>
</filter>
<filter id="filter1_d_909_1369" x="0" y="0" width="297" height="298" filterUnits="userSpaceOnUse" color-interpolation-filters="sRGB">
<feFlood flood-opacity="0" result="BackgroundImageFix"/>
<feColorMatrix in="SourceAlpha" type="matrix" values="0 0 0 0 0 0 0 0 0 0 0 0 0 0 0 0 0 0 127 0" result="hardAlpha"/>
<feOffset dy="4"/>
<feGaussianBlur stdDeviation="2"/>
<feColorMatrix type="matrix" values="0 0 0 0 0 0 0 0 0 0 0 0 0 0 0 0 0 0 0.25 0"/>
<feBlend mode="normal" in2="BackgroundImageFix" result="effect1_dropShadow_909_1369"/>
<feBlend mode="normal" in="SourceGraphic" in2="effect1_dropShadow_909_1369" result="shape"/>
</filter>
</defs>
</svg>
