<svg width="50" height="50" viewBox="0 0 50 50" fill="none" xmlns="http://www.w3.org/2000/svg">
<path d="M50 25.0003C50 11.192 38.8071 0 25.0004 0C11.193 0 0 11.192 0 25.0003C0 38.8065 11.193 49.9994 25.0004 49.9994C38.8071 49.9994 50 38.8065 50 25.0003Z" fill="#FFDD00"/>
<mask id="mask0_909_1415" style="mask-type:alpha" maskUnits="userSpaceOnUse" x="0" y="0" width="50" height="50">
<path d="M50 25.0003C50 11.192 38.8071 0 25.0004 0C11.193 0 0 11.192 0 25.0003C0 38.8065 11.193 49.9994 25.0004 49.9994C38.8071 49.9994 50 38.8065 50 25.0003Z" fill="#25B7D3"/>
</mask>
<g mask="url(#mask0_909_1415)">
<path d="M55.2512 31.6061C55.2318 31.6991 55.2126 31.7921 55.1916 31.8852C54.3183 35.869 53.7997 39.9234 53.7997 44.0033V51.89C53.7997 53.0974 52.8264 54.0769 51.6267 54.0769H43.7905C43.2048 54.0769 42.6206 54.0873 42.0364 54.1098L22.0212 33.9641C21.6784 33.6146 21.507 32.9861 21.507 32.0771C21.507 28.0918 22.5175 25.2238 24.5413 23.4764C24.744 23.2875 25.1553 22.9545 25.7709 22.4789C25.601 22.3319 16.0823 12.7143 15.9719 12.6168C15.5203 12.2267 15.2969 11.6928 15.2969 11.0164C15.2969 9.80298 16.1448 8.61505 17.8438 7.45245C19.5413 6.29009 21.6964 5.70801 24.306 5.70801C27.5802 5.70801 30.16 6.55544 32.0438 8.24594L55.2512 31.6061Z" fill="url(#paint0_linear_909_1415)"/>
<path d="M40.8677 54.0205C38.3172 54.1877 35.7818 54.5341 33.2723 55.0228L21.6778 43.8281C21.0773 43.2645 20.7764 42.6085 20.7764 41.8572C20.7764 41.0749 21.0773 40.4101 21.6778 39.8628C22.2782 39.3153 23.02 39.041 23.9031 39.041C24.809 39.041 25.5933 39.3155 26.2546 39.8628L40.8677 54.0205Z" fill="url(#paint1_linear_909_1415)"/>
<path d="M15.2969 10.9989C15.2969 9.78932 16.1387 8.605 17.8229 7.44581C19.5064 6.2876 21.6424 5.70801 24.2304 5.70801C27.4764 5.70801 30.034 6.55165 31.9018 8.2381C33.7689 9.92551 34.7033 12.0725 34.7033 14.6808C34.7033 15.7592 34.5478 16.7935 34.2369 17.7848C33.9261 18.7759 33.4782 19.6807 32.8918 20.4975C32.3055 21.315 31.7787 21.9932 31.3131 22.5321C30.8475 23.0717 30.2603 23.6628 29.5531 24.3058C28.8459 24.9497 28.4238 25.3409 28.2886 25.4796C27.2673 26.4186 26.6383 27.3754 26.3998 28.3488C26.1613 29.323 26.043 30.8007 26.043 32.783C26.043 33.8616 25.2495 34.4003 23.6643 34.4003C22.8708 34.4003 22.3047 34.2264 21.9647 33.8779C21.6248 33.5289 21.4548 32.9019 21.4548 31.9957C21.4548 28.023 22.4575 25.1641 24.4632 23.4214C24.6854 23.2127 25.159 22.8296 25.884 22.272C26.6082 21.7146 27.1478 21.2523 27.503 20.8864C27.8574 20.5203 28.2713 20.032 28.745 19.4224C29.2186 18.8126 29.5649 18.1508 29.7848 17.4359C30.0046 16.7219 30.1151 15.9637 30.1151 15.1617C30.1151 13.4891 29.5794 12.1906 28.5089 11.2671C27.4385 10.3435 25.9555 9.88128 24.0603 9.88128C22.9601 9.88128 22.0239 10.05 21.2507 10.3875C20.4775 10.7249 19.9363 11.1056 19.6269 11.5311C19.3176 11.9565 18.9738 12.338 18.5959 12.6754C18.2174 13.013 17.8227 13.1808 17.4102 13.1808C16.8947 13.1808 16.413 12.986 15.9668 12.5955C15.5201 12.2062 15.2969 11.674 15.2969 10.9989ZM20.6814 41.6516C20.6814 40.8546 20.9731 40.1771 21.557 39.6196C22.1401 39.0622 22.8619 38.7824 23.7205 38.7824C24.6018 38.7824 25.3637 39.0621 26.0065 39.6196C26.6492 40.1771 26.9707 40.8547 26.9707 41.6516C26.9707 42.4172 26.6492 43.0862 26.0065 43.6601C25.3637 44.2341 24.6018 44.5208 23.7205 44.5208C22.8619 44.5208 22.1401 44.2341 21.557 43.6601C20.9731 43.0861 20.6814 42.4172 20.6814 41.6516Z" fill="#32023A"/>
</g>
<defs>
<linearGradient id="paint0_linear_909_1415" x1="42.886" y1="37.0628" x2="7.42131" y2="1.82537" gradientUnits="userSpaceOnUse">
<stop stop-opacity="0.19"/>
<stop offset="1" stop-opacity="0"/>
</linearGradient>
<linearGradient id="paint1_linear_909_1415" x1="31.459" y1="49.081" x2="22.2324" y2="39.5249" gradientUnits="userSpaceOnUse">
<stop stop-opacity="0.2"/>
<stop offset="1" stop-opacity="0"/>
</linearGradient>
</defs>
</svg>
